<svg xmlns="http://www.w3.org/2000/svg" xmlns:xlink="http://www.w3.org/1999/xlink" width="500" zoomAndPan="magnify" viewBox="0 0 375 374.999991" height="500" preserveAspectRatio="xMidYMid meet" version="1.0"><defs><clipPath id="bec29f6a66"><path d="M 108 103.585938 L 252 103.585938 L 252 229 L 108 229 Z M 108 103.585938 " clip-rule="nonzero"/></clipPath><clipPath id="135d4a6168"><path d="M 133 221 L 192 221 L 192 230.335938 L 133 230.335938 Z M 133 221 " clip-rule="nonzero"/></clipPath></defs><path fill="#fcb31e" d="M 248.675781 150.917969 C 246.503906 152.023438 244.300781 153.074219 242.167969 154.25 C 239.070312 155.957031 235.996094 157.714844 232.976562 159.550781 C 232.359375 159.929688 232.023438 160.765625 231.554688 161.390625 C 228.40625 160.875 227.5 161.351562 225.65625 164.488281 C 224.632812 164.675781 223.613281 164.863281 222.589844 165.050781 C 222.605469 164.894531 222.582031 164.722656 222.648438 164.59375 C 224.394531 161.324219 225.273438 158.058594 223.066406 154.589844 C 222.699219 154.015625 222.863281 153.105469 222.78125 152.347656 C 225.738281 150.796875 228.695312 149.25 231.652344 147.695312 C 231.542969 149.210938 232.242188 150.152344 233.652344 150.679688 C 235.089844 151.214844 236.503906 151.816406 237.917969 152.421875 C 239.527344 153.105469 240.605469 152.503906 241.273438 151.019531 C 241.929688 149.554688 242.515625 148.054688 243.128906 146.597656 C 248.011719 147.683594 248.726562 148.246094 248.675781 150.917969 Z M 248.675781 150.917969 " fill-opacity="1" fill-rule="nonzero"/><path fill="#fcb31e" d="M 231.652344 147.699219 C 228.695312 149.25 225.738281 150.796875 222.78125 152.351562 C 222.195312 147.996094 223.875 144.523438 226.929688 141.554688 C 227.992188 140.515625 228.996094 140.148438 230.390625 140.976562 C 231.433594 141.589844 232.625 141.953125 233.9375 142.507812 C 233.117188 144.359375 232.382812 146.03125 231.652344 147.699219 Z M 231.652344 147.699219 " fill-opacity="1" fill-rule="nonzero"/><path fill="#242424" d="M 225.65625 164.492188 C 227.5 161.355469 228.40625 160.878906 231.554688 161.394531 C 234.210938 163.464844 234.558594 164.6875 233.28125 167.765625 C 230.183594 175.253906 227.058594 182.730469 223.96875 190.21875 C 223.265625 191.925781 222.128906 193.351562 220.242188 193.117188 C 218.953125 192.957031 217.230469 192.167969 216.683594 191.132812 C 216.082031 189.992188 216.195312 188.105469 216.703125 186.808594 C 219.300781 180.117188 222.132812 173.523438 224.859375 166.882812 C 225.179688 166.109375 225.390625 165.289062 225.65625 164.492188 Z M 232.878906 164.671875 C 232.203125 164.039062 231.488281 162.8125 230.644531 162.71875 C 229.65625 162.613281 228.101562 163.210938 227.617188 164.003906 C 226.464844 165.898438 225.800781 168.085938 224.941406 170.15625 C 222.507812 176.003906 220.023438 181.828125 217.710938 187.726562 C 217.355469 188.632812 217.460938 190.132812 218.015625 190.871094 C 218.503906 191.535156 220.035156 191.945312 220.855469 191.6875 C 221.691406 191.421875 222.460938 190.300781 222.851562 189.382812 C 226.023438 181.914062 229.105469 174.414062 232.199219 166.914062 C 232.425781 166.355469 232.558594 165.75 232.878906 164.671875 Z M 232.878906 164.671875 " fill-opacity="1" fill-rule="nonzero"/><g clip-path="url(#bec29f6a66)"><path fill="#201d1c" d="M 141.71875 223.4375 C 141.460938 219.589844 141.261719 215.730469 140.886719 211.894531 C 140.804688 211.074219 140.292969 209.980469 139.632812 209.574219 C 129.660156 203.355469 123.128906 194.578125 119.796875 183.167969 C 118.144531 184.15625 116.570312 185.21875 114.890625 186.074219 C 113.28125 186.898438 111.5 187.519531 109.855469 186.226562 C 108.234375 184.953125 108.316406 183.140625 108.746094 181.328125 C 110.328125 174.703125 113.683594 169.042969 118.113281 163.945312 C 118.742188 163.222656 119.347656 162.347656 119.582031 161.449219 C 122.148438 151.597656 127.378906 143.488281 135.394531 137.222656 C 136.519531 136.34375 136.921875 135.523438 136.707031 134.128906 C 136.257812 131.277344 136.941406 128.785156 139.308594 126.855469 C 139.804688 126.453125 140.074219 125.582031 140.164062 124.894531 C 141.277344 116.003906 145.984375 109.945312 154.042969 106 C 157.082031 104.515625 159.847656 102.675781 163.316406 103.292969 C 165.304688 103.644531 167.207031 104.511719 169.117188 105.226562 C 169.898438 105.519531 170.582031 106.058594 171.335938 106.425781 C 178.6875 110 183.144531 115.722656 184.3125 123.886719 C 184.519531 125.328125 184.742188 126.582031 186.082031 127.652344 C 188.140625 129.292969 188.351562 131.792969 187.953125 134.261719 C 187.746094 135.558594 188.105469 136.324219 189.175781 137.15625 C 197.285156 143.445312 202.566406 151.617188 205.082031 161.574219 C 205.214844 162.085938 205.335938 162.65625 205.636719 163.066406 C 208.636719 167.207031 211.675781 171.316406 214.691406 175.410156 C 216.769531 170.410156 219.046875 165.027344 221.199219 159.59375 C 221.417969 159.039062 220.9375 158.148438 220.660156 157.457031 C 217.695312 150.21875 220.25 141.871094 226.875 137.695312 C 227.621094 137.222656 228.921875 137.132812 229.777344 137.425781 C 232.535156 138.382812 235.203125 139.597656 238.003906 140.753906 C 237.019531 143.195312 236.105469 145.453125 235.128906 147.871094 C 236.3125 148.347656 237.355469 148.773438 238.554688 149.257812 C 239.570312 146.867188 240.523438 144.621094 241.539062 142.230469 C 244.613281 143.496094 247.558594 144.636719 250.429688 145.945312 C 250.976562 146.195312 251.402344 147.089844 251.550781 147.757812 C 253.3125 155.546875 249.300781 163.15625 241.957031 166.363281 C 240.976562 166.792969 239.957031 167.78125 239.542969 168.761719 C 234.691406 180.21875 229.988281 191.742188 225.171875 203.210938 C 223.277344 207.714844 219.078125 210.0625 214.371094 209.480469 C 210.023438 208.945312 206.371094 205.542969 205.8125 200.957031 C 205.582031 199.054688 206 196.949219 206.601562 195.09375 C 207.558594 192.167969 208.917969 189.367188 210.132812 186.457031 C 208.4375 185.363281 206.769531 184.277344 204.9375 183.09375 C 204.476562 184.476562 204.089844 185.78125 203.609375 187.050781 C 199.992188 196.5625 193.871094 204.039062 185.203125 209.375 C 184.0625 210.074219 183.722656 210.78125 183.683594 212.105469 C 183.574219 215.882812 183.210938 219.65625 182.945312 223.429688 C 182.683594 224.144531 182.445312 224.871094 182.152344 225.574219 C 180.511719 229.546875 177.492188 229.976562 174.945312 226.503906 C 173.828125 224.980469 173.027344 223.226562 172.078125 221.574219 C 171.421875 219.457031 170.757812 217.339844 170.195312 215.53125 C 164.796875 215.53125 159.664062 215.53125 154.441406 215.53125 C 153.855469 217.445312 153.222656 219.507812 152.589844 221.570312 C 151.453125 223.457031 150.496094 225.488281 149.128906 227.191406 C 147.074219 229.738281 144.421875 229.324219 142.910156 226.402344 C 142.425781 225.464844 142.113281 224.433594 141.71875 223.4375 Z M 181.398438 140.757812 C 181.558594 140.59375 181.722656 140.433594 181.882812 140.265625 L 181.863281 140.289062 C 182.332031 139.664062 182.800781 139.039062 183.269531 138.414062 L 183.265625 138.421875 C 183.484375 138 183.703125 137.578125 183.921875 137.15625 L 183.90625 137.117188 C 184.242188 135.269531 184.851562 133.414062 184.804688 131.578125 C 184.78125 130.554688 184.316406 128.691406 182.261719 129.59375 C 181.972656 129.585938 181.679688 129.582031 181.390625 129.574219 C 181.386719 128.171875 181.378906 126.773438 181.375 125.371094 C 182.222656 122.996094 181.355469 119.742188 179.515625 118.429688 C 179.441406 118.335938 179.410156 118.226562 179.421875 118.109375 C 179.484375 116.726562 179.3125 115.492188 177.632812 115.179688 L 177.644531 115.191406 C 177.496094 115.027344 177.351562 114.859375 177.203125 114.699219 L 177.195312 114.691406 C 176.984375 114.4375 176.773438 114.179688 176.566406 113.925781 L 176.734375 113.777344 L 176.5625 113.921875 C 176.265625 113.605469 175.96875 113.28125 175.671875 112.960938 L 175.742188 112.835938 L 175.679688 112.96875 C 175.519531 112.824219 175.359375 112.683594 175.203125 112.539062 L 175.292969 112.371094 L 175.199219 112.539062 C 174.941406 112.332031 174.679688 112.117188 174.425781 111.910156 L 174.421875 111.90625 C 174.253906 111.765625 174.082031 111.621094 173.914062 111.480469 L 173.921875 111.492188 C 173.285156 111.058594 172.644531 110.617188 172.007812 110.179688 L 172.003906 110.183594 C 171.441406 109.921875 170.878906 109.667969 170.316406 109.410156 C 170.15625 109.464844 169.988281 109.523438 169.828125 109.578125 C 169.15625 109.140625 168.488281 108.707031 167.816406 108.269531 C 167.519531 107.957031 167.222656 107.652344 166.921875 107.34375 C 166.890625 107.132812 166.863281 106.921875 166.832031 106.714844 C 166.71875 106.777344 166.601562 106.835938 166.488281 106.902344 C 163.679688 106.449219 160.855469 105.6875 158.117188 107.207031 C 157.816406 107.378906 157.515625 107.558594 157.210938 107.734375 L 157.210938 107.730469 C 156.933594 108.140625 156.648438 108.550781 156.367188 108.964844 C 156.324219 109.054688 156.34375 109.128906 156.425781 109.199219 C 156.292969 110.113281 156.15625 111.03125 156.019531 111.949219 C 156.019531 118.429688 156.019531 124.914062 156.019531 131.394531 C 156.019531 131.730469 156.015625 132.066406 156.015625 132.402344 C 156.011719 133.617188 156.011719 134.832031 156.007812 136.050781 C 156.019531 136.378906 156.03125 136.707031 156.046875 137.027344 C 156.128906 137.148438 156.21875 137.261719 156.304688 137.378906 L 156.28125 137.546875 C 157.007812 137.679688 157.734375 137.917969 158.464844 137.925781 C 161.445312 137.96875 164.429688 137.898438 167.40625 137.972656 C 168.039062 137.992188 168.65625 138.457031 169.28125 138.71875 C 168.664062 138.722656 168.050781 138.722656 167.4375 138.726562 C 167.132812 138.726562 166.828125 138.722656 166.523438 138.722656 C 165.441406 138.722656 164.351562 138.722656 163.269531 138.722656 C 163.113281 138.722656 162.957031 138.722656 162.800781 138.722656 C 160.625 138.722656 158.457031 138.722656 156.28125 138.722656 C 155.824219 138.722656 155.367188 138.722656 154.902344 138.722656 C 153.664062 138.722656 152.425781 138.722656 151.183594 138.722656 C 150.875 138.71875 150.5625 138.71875 150.25 138.714844 C 149.316406 138.617188 148.386719 138.523438 147.453125 138.425781 L 147.445312 138.421875 C 147.015625 138.203125 146.585938 137.988281 146.160156 137.769531 L 146.203125 137.808594 C 146 137.691406 145.800781 137.574219 145.601562 137.457031 L 145.621094 137.46875 C 145.199219 137.101562 144.785156 136.730469 144.363281 136.359375 L 144.402344 136.394531 C 144.175781 136.144531 143.953125 135.894531 143.730469 135.640625 L 143.722656 135.625 C 143.578125 135.457031 143.433594 135.28125 143.289062 135.113281 C 142.671875 133.214844 142.0625 131.316406 141.457031 129.445312 C 138.398438 131.84375 139.515625 137.6875 143.785156 141.214844 C 144.230469 141.527344 144.671875 141.839844 145.117188 142.15625 L 145.109375 142.148438 C 145.421875 142.316406 145.734375 142.492188 146.042969 142.660156 L 146.011719 142.640625 C 147.691406 143.082031 149.363281 143.875 151.054688 143.90625 C 158.546875 144.050781 166.042969 144.015625 173.535156 143.9375 C 174.769531 143.925781 176.003906 143.382812 177.242188 143.082031 L 177.230469 143.085938 C 177.894531 142.84375 178.554688 142.597656 179.214844 142.355469 L 179.253906 142.335938 C 179.511719 142.117188 179.773438 141.902344 180.035156 141.683594 L 180.011719 141.703125 C 180.316406 141.53125 180.628906 141.363281 180.933594 141.191406 L 180.921875 141.203125 C 181.089844 141.046875 181.257812 140.894531 181.425781 140.738281 Z M 180.949219 144.941406 L 180.949219 144.9375 C 180.179688 145.253906 179.40625 145.574219 178.632812 145.890625 L 178.632812 145.886719 C 177.230469 146.246094 175.828125 146.613281 174.425781 146.972656 C 174.113281 146.992188 173.796875 147.007812 173.484375 147.023438 C 172.910156 146.78125 172.34375 146.332031 171.769531 146.328125 C 165.324219 146.277344 158.882812 146.277344 152.441406 146.328125 C 151.867188 146.332031 151.300781 146.78125 150.726562 147.023438 C 150.414062 147 150.097656 146.976562 149.785156 146.953125 C 149.425781 146.941406 149.070312 146.925781 148.714844 146.914062 C 146.355469 145.882812 143.992188 144.847656 141.632812 143.816406 C 140.839844 143.039062 140.046875 142.261719 139.253906 141.484375 C 138.871094 140.773438 138.488281 140.058594 138.097656 139.328125 C 129.292969 145.140625 119.511719 159.265625 122.023438 176.925781 C 122.039062 177.613281 121.957031 178.324219 122.085938 178.988281 C 124.082031 189.355469 129.125 197.933594 137.558594 204.3125 C 140.90625 206.839844 144.335938 209.503906 148.804688 209.925781 C 149.492188 210.242188 150.148438 210.648438 150.867188 210.855469 C 156.941406 212.597656 163.085938 213.0625 169.328125 211.863281 C 184.519531 208.9375 194.871094 200.226562 200.449219 185.816406 C 201.304688 182.246094 202.53125 178.71875 202.945312 175.097656 C 203.613281 169.214844 202.929688 163.394531 200.449219 157.902344 C 198.09375 150.316406 193.472656 144.355469 187.246094 139.566406 C 187.035156 139.402344 186.464844 139.703125 186.0625 139.78125 C 184.820312 141.179688 183.582031 142.574219 182.339844 143.976562 L 182.320312 143.988281 C 181.863281 144.3125 181.410156 144.625 180.949219 144.941406 Z M 148.457031 113.667969 C 143.539062 118.863281 142.652344 125.207031 143.511719 131.917969 C 143.679688 133.25 144.941406 134.4375 145.695312 135.695312 C 147.449219 137.8125 149.640625 137.992188 152.261719 137.714844 C 154.660156 137.464844 154.835938 136.394531 154.808594 134.4375 C 154.710938 127.085938 154.773438 119.730469 154.773438 112.378906 C 154.773438 111.339844 154.773438 110.300781 154.773438 108.515625 C 152.3125 110.523438 150.382812 112.09375 148.457031 113.667969 Z M 222.78125 152.351562 C 222.863281 153.109375 222.699219 154.019531 223.066406 154.59375 C 225.273438 158.0625 224.394531 161.332031 222.648438 164.597656 C 222.582031 164.726562 222.605469 164.902344 222.589844 165.054688 C 222.285156 165.652344 221.9375 166.238281 221.675781 166.855469 C 217.585938 176.703125 213.472656 186.539062 209.429688 196.402344 C 207.375 201.414062 210.582031 206.445312 215.769531 206.414062 C 219.203125 206.390625 221.304688 204.496094 222.578125 201.40625 C 227.375 189.761719 232.242188 178.148438 237.011719 166.492188 C 237.613281 165.019531 238.328125 164.183594 239.9375 163.671875 C 245.535156 161.90625 249.058594 156.585938 248.675781 150.925781 C 248.726562 148.25 248.015625 147.691406 243.125 146.605469 C 242.511719 148.066406 241.925781 149.5625 241.269531 151.027344 C 240.601562 152.511719 239.527344 153.113281 237.914062 152.429688 C 236.5 151.828125 235.085938 151.226562 233.648438 150.6875 C 232.238281 150.160156 231.539062 149.21875 231.648438 147.703125 C 232.382812 146.035156 233.117188 144.363281 233.929688 142.511719 C 232.617188 141.957031 231.425781 141.59375 230.382812 140.980469 C 228.988281 140.152344 227.984375 140.515625 226.917969 141.558594 C 223.871094 144.523438 222.191406 147.992188 222.78125 152.351562 Z M 144.484375 212.265625 C 143.632812 216.453125 144.378906 222.289062 146.144531 225.308594 C 146.460938 225.128906 146.953125 225.027344 147.070312 224.757812 C 148.457031 221.675781 149.808594 218.582031 151.074219 215.449219 C 151.183594 215.183594 150.707031 214.402344 150.34375 214.261719 C 148.425781 213.527344 146.457031 212.917969 144.484375 212.265625 Z M 180.425781 212.082031 C 179.367188 212.488281 178.671875 212.746094 177.976562 213.011719 C 173.03125 214.921875 172.964844 214.953125 175.035156 219.929688 C 175.828125 221.835938 176.988281 223.582031 177.984375 225.410156 C 180.785156 221.105469 180.546875 216.78125 180.425781 212.082031 Z M 118.257812 168.652344 C 115.054688 173.40625 112.339844 177.875 111.609375 183.34375 C 113.59375 183.386719 118.367188 180.699219 118.871094 179.417969 C 118.976562 179.148438 118.964844 178.8125 118.949219 178.511719 C 118.734375 175.386719 118.511719 172.261719 118.257812 168.652344 Z M 211.535156 183.722656 C 211.882812 182.132812 212.628906 180.835938 212.273438 180.007812 C 210.648438 176.167969 208.71875 172.457031 206.890625 168.695312 C 206.226562 172.125 205.988281 175.242188 205.859375 178.367188 C 205.839844 178.941406 206.097656 179.746094 206.519531 180.089844 C 207.9375 181.257812 209.480469 182.257812 211.535156 183.722656 Z M 211.535156 183.722656 " fill-opacity="1" fill-rule="nonzero"/></g><g clip-path="url(#135d4a6168)"><path fill="#cbcbcb" d="M 141.71875 223.4375 C 142.113281 224.429688 142.425781 225.464844 142.914062 226.40625 C 144.425781 229.328125 147.078125 229.742188 149.132812 227.195312 C 150.503906 225.496094 151.457031 223.460938 152.59375 221.574219 C 154.804688 221.421875 157.015625 221.117188 159.226562 221.140625 C 163.511719 221.1875 167.796875 221.421875 172.078125 221.578125 C 173.023438 223.230469 173.828125 224.984375 174.945312 226.507812 C 177.488281 229.984375 180.511719 229.550781 182.152344 225.578125 C 182.441406 224.875 182.683594 224.148438 182.945312 223.433594 C 185.433594 224.363281 188.050781 225.046875 190.367188 226.300781 C 192.195312 227.289062 192.308594 229.25 190.511719 230.222656 C 187.507812 231.84375 184.273438 233.296875 180.964844 234.015625 C 171.148438 236.148438 161.167969 236.097656 151.238281 235.019531 C 146.601562 234.515625 142.019531 233.34375 137.472656 232.214844 C 135.492188 231.722656 133.136719 230.792969 133.140625 228.328125 C 133.144531 225.875 135.523438 225.128906 137.46875 224.417969 C 138.828125 223.929688 140.300781 223.757812 141.71875 223.4375 Z M 141.71875 223.4375 " fill-opacity="1" fill-rule="nonzero"/></g><path fill="#1fa2ff" d="M 122.015625 176.933594 C 119.511719 159.277344 129.289062 145.152344 138.09375 139.335938 C 138.484375 140.066406 138.867188 140.78125 139.242188 141.492188 C 136.445312 144.503906 133.648438 147.507812 130.851562 150.519531 C 130.679688 150.699219 130.511719 150.878906 130.335938 151.0625 L 130.402344 151.027344 C 130.21875 151.332031 130.03125 151.640625 129.847656 151.941406 L 129.871094 151.90625 C 129.695312 152.230469 129.523438 152.546875 129.347656 152.871094 C 129.191406 153.160156 129.035156 153.453125 128.878906 153.742188 C 128.445312 154.542969 128.007812 155.34375 127.574219 156.148438 L 127.601562 156.117188 C 127.414062 156.574219 127.226562 157.035156 127.039062 157.492188 L 127.054688 157.472656 C 126.910156 157.796875 126.761719 158.128906 126.617188 158.457031 L 126.648438 158.421875 C 126.476562 158.890625 126.304688 159.359375 126.128906 159.828125 L 126.152344 159.800781 C 125.851562 160.226562 125.371094 160.613281 125.277344 161.078125 C 124.722656 163.917969 123.933594 166.769531 123.847656 169.628906 C 123.765625 172.527344 124.414062 175.445312 124.746094 178.355469 L 124.722656 178.332031 C 125.042969 179.574219 125.371094 180.824219 125.695312 182.066406 L 125.660156 182 C 125.773438 182.636719 125.882812 183.273438 126 183.90625 C 126.253906 183.890625 126.507812 183.878906 126.761719 183.871094 C 126.84375 183.179688 127.023438 182.484375 126.992188 181.796875 C 126.878906 178.734375 126.675781 175.683594 126.5625 172.621094 C 126.515625 171.292969 126.613281 169.960938 126.644531 168.632812 C 126.703125 168.3125 126.757812 168 126.820312 167.679688 C 127.152344 166.570312 127.492188 165.460938 127.828125 164.347656 L 127.765625 164.34375 C 127.984375 163.597656 128.203125 162.851562 128.421875 162.097656 C 130.875 154.597656 135.539062 148.691406 141.625 143.820312 C 143.984375 144.851562 146.34375 145.886719 148.707031 146.917969 L 148.722656 147.015625 C 148.683594 149.539062 148.644531 152.0625 148.613281 154.585938 C 145.972656 154.972656 143.792969 156.253906 143.035156 158.820312 C 141.707031 163.3125 141.785156 169.484375 148.417969 171 C 148.527344 172.851562 148.640625 174.699219 148.753906 176.546875 C 145.472656 180.410156 144.015625 184.863281 144.152344 189.941406 C 144.269531 194.4375 144.464844 194.851562 148.734375 196.007812 C 148.703125 199.40625 148.667969 202.808594 148.628906 206.210938 C 134.917969 201.554688 126.34375 192.179688 122.796875 178.152344 C 122.6875 177.710938 122.285156 177.339844 122.015625 176.933594 Z M 122.015625 176.933594 " fill-opacity="1" fill-rule="nonzero"/><path fill="#1fa2ff" d="M 148.617188 154.585938 C 148.65625 152.0625 148.691406 149.539062 148.730469 147.015625 C 149.082031 147 149.433594 146.976562 149.78125 146.957031 C 150.09375 146.980469 150.40625 147.003906 150.722656 147.027344 C 158.308594 147.027344 165.894531 147.027344 173.484375 147.027344 C 173.796875 147.011719 174.113281 146.996094 174.425781 146.976562 C 175.828125 146.617188 177.230469 146.253906 178.632812 145.886719 L 178.632812 145.890625 C 179.40625 145.574219 180.179688 145.253906 180.949219 144.9375 L 180.949219 144.941406 C 181.410156 144.625 181.863281 144.3125 182.320312 143.992188 L 182.339844 143.980469 C 183.394531 143.03125 184.457031 142.082031 185.515625 141.132812 C 190.628906 145.703125 194.746094 150.925781 196.289062 157.808594 C 191.328125 157.878906 186.375 157.945312 181.417969 158.019531 C 177.914062 153.464844 173.664062 153.460938 169.765625 158.003906 C 164.8125 158 159.855469 157.992188 154.902344 157.988281 C 153.328125 155.898438 151.308594 154.617188 148.617188 154.585938 Z M 148.617188 154.585938 " fill-opacity="1" fill-rule="nonzero"/><path fill="#fcb31e" d="M 248.675781 150.917969 C 249.058594 156.582031 245.535156 161.898438 239.9375 163.664062 C 238.328125 164.175781 237.609375 165.011719 237.011719 166.484375 C 232.246094 178.140625 227.375 189.753906 222.578125 201.398438 C 221.304688 204.484375 219.203125 206.382812 215.769531 206.402344 C 210.582031 206.4375 207.375 201.40625 209.429688 196.394531 C 213.472656 186.527344 217.585938 176.691406 221.675781 166.847656 C 221.9375 166.230469 222.285156 165.648438 222.589844 165.042969 C 223.613281 164.859375 224.632812 164.671875 225.65625 164.484375 C 225.390625 165.28125 225.179688 166.105469 224.859375 166.878906 C 222.132812 173.519531 219.300781 180.113281 216.703125 186.804688 C 216.203125 188.09375 216.082031 189.988281 216.683594 191.128906 C 217.230469 192.160156 218.949219 192.953125 220.242188 193.113281 C 222.128906 193.347656 223.265625 191.917969 223.96875 190.214844 C 227.058594 182.726562 230.183594 175.246094 233.28125 167.761719 C 234.558594 164.683594 234.210938 163.460938 231.554688 161.390625 C 232.023438 160.765625 232.359375 159.929688 232.976562 159.550781 C 235.996094 157.714844 239.070312 155.957031 242.167969 154.25 C 244.300781 153.074219 246.503906 152.023438 248.675781 150.917969 Z M 218.539062 199.59375 C 217.167969 198.683594 216.304688 197.667969 215.714844 197.8125 C 214.914062 198.003906 214.328125 199.085938 213.652344 199.78125 C 214.316406 200.410156 214.96875 201.527344 215.640625 201.539062 C 216.40625 201.546875 217.175781 200.566406 218.539062 199.59375 Z M 218.539062 199.59375 " fill-opacity="1" fill-rule="nonzero"/><path fill="#1fa2ff" d="M 200.449219 185.824219 C 194.867188 200.230469 184.519531 208.941406 169.328125 211.871094 C 163.085938 213.074219 156.941406 212.609375 150.867188 210.867188 C 150.148438 210.660156 149.492188 210.25 148.804688 209.9375 C 148.824219 208.839844 148.847656 207.746094 148.863281 206.648438 C 149.46875 206.742188 150.085938 206.792969 150.679688 206.9375 C 156.671875 208.421875 162.671875 208.46875 168.703125 207.140625 C 174.925781 205.777344 180.390625 202.832031 185.207031 198.816406 C 189.433594 195.300781 192.894531 191.066406 194.867188 185.804688 C 194.996094 185.734375 195.136719 185.675781 195.273438 185.621094 C 196.996094 185.683594 198.722656 185.757812 200.449219 185.824219 Z M 200.449219 185.824219 " fill-opacity="1" fill-rule="nonzero"/><path fill="#fcb31e" d="M 156.421875 109.183594 C 156.347656 109.121094 156.328125 109.042969 156.371094 108.957031 C 156.652344 108.542969 156.9375 108.132812 157.21875 107.71875 L 157.21875 107.722656 C 157.527344 107.722656 157.832031 107.730469 158.140625 107.730469 C 161.574219 106.976562 164.953125 106.585938 167.910156 109.125 L 167.90625 109.121094 C 167.90625 118.183594 167.90625 127.242188 167.90625 136.253906 C 166.777344 136.523438 165.949219 136.917969 165.148438 136.875 C 163.105469 136.765625 160.871094 137.867188 159.058594 136.054688 C 158.96875 135.734375 158.882812 135.410156 158.792969 135.082031 C 158.800781 134.660156 158.808594 134.238281 158.8125 133.8125 C 158.851562 132.84375 158.894531 131.871094 158.933594 130.894531 C 158.894531 125.210938 158.855469 119.53125 158.8125 113.847656 C 158.851562 113.636719 158.894531 113.425781 158.933594 113.21875 C 158.9375 112.957031 158.941406 112.703125 158.945312 112.445312 C 158.9375 112.238281 158.925781 112.035156 158.921875 111.824219 C 158.550781 111.292969 158.175781 110.757812 157.796875 110.230469 C 157.628906 110.1875 157.457031 110.140625 157.285156 110.097656 C 157.003906 109.796875 156.710938 109.492188 156.421875 109.183594 Z M 156.421875 109.183594 " fill-opacity="1" fill-rule="nonzero"/><path fill="#f88c0a" d="M 181.378906 125.375 C 181.382812 126.777344 181.390625 128.175781 181.398438 129.578125 C 180.839844 135.875 176.296875 138.917969 170.113281 136.980469 C 170.113281 130.328125 170.140625 123.628906 170.101562 116.933594 C 170.085938 114.476562 169.917969 112.023438 169.820312 109.574219 C 169.980469 109.519531 170.148438 109.460938 170.308594 109.40625 C 170.867188 109.664062 171.433594 109.917969 171.992188 110.179688 L 172 110.175781 C 172.640625 110.609375 173.277344 111.050781 173.914062 111.488281 L 173.902344 111.476562 C 174.074219 111.617188 174.242188 111.761719 174.414062 111.902344 L 174.417969 111.90625 C 174.675781 112.113281 174.9375 112.324219 175.191406 112.535156 L 175.285156 112.367188 L 175.195312 112.535156 C 175.355469 112.679688 175.511719 112.820312 175.671875 112.960938 L 175.734375 112.832031 L 175.664062 112.957031 C 175.960938 113.277344 176.261719 113.601562 176.558594 113.917969 L 176.730469 113.773438 L 176.5625 113.921875 C 176.769531 114.175781 176.980469 114.429688 177.191406 114.6875 L 177.199219 114.695312 C 177.347656 114.859375 177.492188 115.027344 177.640625 115.1875 L 177.625 115.175781 C 178.226562 116.152344 178.820312 117.128906 179.417969 118.105469 C 179.40625 118.222656 179.433594 118.332031 179.511719 118.425781 C 180.140625 120.75 180.757812 123.0625 181.378906 125.375 Z M 181.378906 125.375 " fill-opacity="1" fill-rule="nonzero"/><path fill="#f9b221" d="M 143.785156 141.210938 C 139.511719 137.679688 138.394531 131.839844 141.457031 129.441406 C 142.0625 131.3125 142.671875 133.210938 143.289062 135.109375 C 143.433594 135.277344 143.578125 135.453125 143.722656 135.621094 L 143.730469 135.636719 C 143.957031 135.886719 144.179688 136.136719 144.402344 136.390625 L 144.363281 136.355469 C 144.785156 136.726562 145.199219 137.09375 145.621094 137.464844 L 145.601562 137.453125 C 145.800781 137.570312 146 137.6875 146.203125 137.804688 L 146.160156 137.765625 C 146.585938 137.984375 147.015625 138.199219 147.445312 138.410156 L 147.453125 138.414062 C 148.179688 138.722656 148.902344 139.285156 149.625 139.289062 C 158.105469 139.351562 166.582031 139.351562 175.054688 139.285156 C 175.773438 139.28125 176.484375 138.695312 177.203125 138.382812 L 177.191406 138.390625 C 177.507812 138.246094 177.820312 138.097656 178.140625 137.953125 L 178.152344 137.945312 C 178.453125 137.777344 178.757812 137.609375 179.058594 137.445312 L 179.039062 137.453125 C 179.324219 137.257812 179.613281 137.058594 179.898438 136.863281 L 179.871094 136.910156 C 180.039062 136.746094 180.203125 136.585938 180.371094 136.425781 L 180.332031 136.464844 C 180.535156 136.191406 180.734375 135.917969 180.9375 135.648438 L 180.960938 135.617188 C 181.09375 135.449219 181.234375 135.28125 181.371094 135.113281 L 181.351562 135.140625 C 181.503906 134.898438 181.652344 134.660156 181.804688 134.417969 L 181.828125 134.230469 C 182.457031 133.078125 183.085938 131.925781 183.71875 130.773438 C 183.878906 130.773438 184.042969 130.777344 184.203125 130.777344 C 184.105469 132.894531 184.011719 135.007812 183.914062 137.121094 L 183.925781 137.160156 C 183.707031 137.578125 183.488281 138 183.273438 138.425781 L 183.277344 138.421875 C 182.808594 139.042969 182.339844 139.667969 181.871094 140.292969 L 181.894531 140.269531 C 181.730469 140.4375 181.566406 140.597656 181.40625 140.761719 L 181.429688 140.738281 C 181.261719 140.894531 181.09375 141.046875 180.925781 141.203125 L 180.9375 141.191406 C 180.632812 141.363281 180.324219 141.53125 180.015625 141.703125 L 180.039062 141.683594 C 179.777344 141.902344 179.515625 142.117188 179.257812 142.335938 L 179.21875 142.355469 C 178.558594 142.597656 177.898438 142.84375 177.238281 143.085938 L 177.246094 143.082031 C 175.1875 143.222656 173.117188 143.527344 171.0625 143.472656 C 162.714844 143.253906 154.363281 142.925781 146.015625 142.636719 L 146.046875 142.65625 C 145.738281 142.488281 145.425781 142.3125 145.113281 142.144531 L 145.121094 142.152344 C 144.671875 141.835938 144.226562 141.523438 143.785156 141.210938 Z M 143.785156 141.210938 " fill-opacity="1" fill-rule="nonzero"/><path fill="#1fa2ff" d="M 200.449219 185.824219 C 198.722656 185.757812 196.996094 185.6875 195.273438 185.617188 C 195.359375 185.242188 195.386719 184.84375 195.535156 184.5 C 198.886719 176.808594 199.265625 168.871094 197.574219 160.746094 C 197.234375 159.109375 196.527344 158.25 194.621094 158.351562 C 191.386719 158.519531 188.132812 158.359375 184.890625 158.417969 C 183.863281 158.441406 182.839844 158.734375 181.816406 158.902344 C 181.683594 158.609375 181.550781 158.316406 181.417969 158.027344 C 186.375 157.957031 191.328125 157.886719 196.289062 157.816406 C 197.675781 157.847656 199.058594 157.878906 200.449219 157.914062 C 202.929688 163.40625 203.613281 169.226562 202.945312 175.109375 C 202.53125 178.726562 201.304688 182.253906 200.449219 185.824219 Z M 200.449219 185.824219 " fill-opacity="1" fill-rule="nonzero"/><path fill="#fceae9" d="M 141.628906 143.820312 C 135.542969 148.691406 130.882812 154.597656 128.425781 162.097656 C 128.207031 162.847656 127.988281 163.59375 127.769531 164.34375 L 127.832031 164.347656 C 127.496094 165.460938 127.15625 166.570312 126.824219 167.679688 C 126.761719 168 126.707031 168.3125 126.648438 168.632812 C 126.453125 172.152344 126.273438 175.664062 126.050781 179.179688 C 125.992188 180.128906 125.796875 181.0625 125.664062 182.003906 L 125.699219 182.070312 C 125.375 180.828125 125.046875 179.578125 124.726562 178.335938 L 124.75 178.363281 C 123.980469 172.082031 124.519531 165.902344 126.15625 159.804688 L 126.136719 159.832031 C 126.308594 159.363281 126.480469 158.894531 126.652344 158.425781 L 126.625 158.460938 C 126.769531 158.132812 126.917969 157.804688 127.058594 157.476562 L 127.042969 157.496094 C 127.230469 157.039062 127.417969 156.582031 127.605469 156.121094 L 127.578125 156.152344 C 128.011719 155.347656 128.449219 154.546875 128.882812 153.746094 C 129.039062 153.457031 129.195312 153.164062 129.351562 152.875 C 129.527344 152.550781 129.699219 152.234375 129.875 151.910156 L 129.855469 151.945312 C 130.035156 151.640625 130.222656 151.332031 130.40625 151.03125 L 130.34375 151.066406 C 130.511719 150.882812 130.679688 150.707031 130.855469 150.527344 C 133.652344 147.515625 136.449219 144.511719 139.246094 141.503906 C 140.042969 142.265625 140.835938 143.042969 141.628906 143.820312 Z M 141.628906 143.820312 " fill-opacity="1" fill-rule="nonzero"/><path fill="#1fa2ff" d="M 148.863281 206.648438 C 148.839844 207.746094 148.824219 208.839844 148.804688 209.9375 C 144.332031 209.511719 140.90625 206.847656 137.554688 204.320312 C 129.121094 197.945312 124.078125 189.367188 122.082031 179 C 121.953125 178.332031 122.035156 177.621094 122.015625 176.933594 C 122.285156 177.34375 122.6875 177.710938 122.796875 178.15625 C 126.34375 192.183594 134.917969 201.558594 148.632812 206.21875 C 148.710938 206.363281 148.785156 206.503906 148.863281 206.648438 Z M 148.863281 206.648438 " fill-opacity="1" fill-rule="nonzero"/><path fill="#f9f9f9" d="M 172.082031 221.582031 C 167.800781 221.425781 163.511719 221.195312 159.230469 221.148438 C 157.023438 221.121094 154.804688 221.421875 152.597656 221.578125 C 153.230469 219.515625 153.859375 217.457031 154.449219 215.539062 C 159.671875 215.539062 164.808594 215.539062 170.203125 215.539062 C 170.761719 217.34375 171.425781 219.464844 172.082031 221.582031 Z M 172.082031 221.582031 " fill-opacity="1" fill-rule="nonzero"/><path fill="#4d2708" d="M 181.828125 134.230469 L 181.804688 134.417969 C 181.652344 134.660156 181.503906 134.898438 181.351562 135.132812 L 181.371094 135.109375 C 181.234375 135.277344 181.09375 135.445312 180.960938 135.613281 L 180.9375 135.644531 C 180.734375 135.914062 180.535156 136.1875 180.332031 136.457031 L 180.375 136.421875 C 180.207031 136.582031 180.042969 136.742188 179.875 136.90625 L 179.902344 136.863281 C 179.617188 137.058594 179.328125 137.257812 179.042969 137.453125 L 179.0625 137.445312 C 178.761719 137.609375 178.457031 137.777344 178.15625 137.945312 L 178.144531 137.953125 C 177.828125 138.097656 177.511719 138.246094 177.195312 138.390625 L 177.207031 138.382812 C 174.566406 138.492188 171.929688 138.601562 169.289062 138.714844 C 168.664062 138.453125 168.046875 137.988281 167.414062 137.96875 C 164.433594 137.894531 161.453125 137.964844 158.472656 137.921875 C 157.742188 137.914062 157.015625 137.671875 156.292969 137.542969 C 160.3125 137.476562 164.328125 137.414062 168.347656 137.351562 C 168.484375 136.789062 168.738281 136.234375 168.742188 135.671875 C 168.769531 127.824219 168.769531 119.976562 168.75 112.125 C 168.75 111.53125 168.566406 110.9375 168.464844 110.339844 C 168.28125 109.933594 168.097656 109.527344 167.910156 109.121094 L 167.914062 109.125 C 167.878906 108.835938 167.851562 108.546875 167.816406 108.261719 C 168.488281 108.699219 169.15625 109.136719 169.828125 109.574219 C 169.925781 112.027344 170.097656 114.484375 170.109375 116.9375 C 170.148438 123.636719 170.121094 130.332031 170.121094 136.984375 C 176.308594 138.917969 180.847656 135.878906 181.40625 129.582031 C 181.695312 129.589844 181.988281 129.59375 182.273438 129.601562 C 182.121094 131.140625 181.976562 132.683594 181.828125 134.230469 Z M 181.828125 134.230469 " fill-opacity="1" fill-rule="nonzero"/><path fill="#1fa2ff" d="M 200.445312 157.910156 C 199.054688 157.875 197.671875 157.84375 196.285156 157.8125 C 194.742188 150.925781 190.625 145.707031 185.511719 141.136719 C 185.691406 140.6875 185.875 140.242188 186.058594 139.792969 C 186.460938 139.707031 187.03125 139.410156 187.242188 139.574219 C 193.46875 144.363281 198.09375 150.328125 200.445312 157.910156 Z M 200.445312 157.910156 " fill-opacity="1" fill-rule="nonzero"/><path fill="#d8ab4b" d="M 148.457031 113.667969 C 150.382812 112.09375 152.3125 110.523438 154.773438 108.515625 C 154.773438 110.300781 154.773438 111.339844 154.773438 112.378906 C 154.773438 119.730469 154.710938 127.085938 154.808594 134.4375 C 154.835938 136.394531 154.660156 137.464844 152.261719 137.714844 C 149.636719 137.992188 147.449219 137.816406 145.691406 135.695312 C 145.847656 134.902344 146.132812 134.113281 146.144531 133.3125 C 146.195312 130.324219 145.882812 127.296875 146.238281 124.351562 C 146.582031 121.542969 147.59375 118.808594 148.3125 116.042969 C 146.929688 121.160156 146.851562 126.382812 146.957031 131.632812 C 147.046875 135.925781 146.96875 135.929688 151.148438 136.632812 C 153.902344 137.101562 153.980469 137.03125 153.988281 134.175781 C 153.992188 127.210938 153.992188 120.246094 153.980469 113.28125 C 153.980469 112.476562 153.910156 111.664062 153.851562 110.46875 C 152.980469 111.078125 152.351562 111.382812 151.910156 111.859375 C 150.675781 113.203125 149.519531 114.621094 148.335938 116.011719 C 148.378906 115.234375 148.417969 114.453125 148.457031 113.667969 Z M 148.457031 113.667969 " fill-opacity="1" fill-rule="nonzero"/><path fill="#5e5e5e" d="M 144.484375 212.265625 C 146.457031 212.925781 148.421875 213.527344 150.339844 214.265625 C 150.699219 214.40625 151.179688 215.183594 151.070312 215.453125 C 149.804688 218.585938 148.449219 221.679688 147.066406 224.761719 C 146.949219 225.03125 146.457031 225.132812 146.140625 225.3125 C 144.382812 222.289062 143.636719 216.453125 144.484375 212.265625 Z M 144.484375 212.265625 " fill-opacity="1" fill-rule="nonzero"/><path fill="#5e5e5e" d="M 180.425781 212.082031 C 180.546875 216.78125 180.785156 221.105469 177.988281 225.410156 C 176.996094 223.585938 175.832031 221.835938 175.039062 219.929688 C 172.96875 214.949219 173.035156 214.921875 177.980469 213.011719 C 178.671875 212.746094 179.371094 212.488281 180.425781 212.082031 Z M 180.425781 212.082031 " fill-opacity="1" fill-rule="nonzero"/><path fill="#c6c7c3" d="M 118.257812 168.652344 C 118.511719 172.261719 118.734375 175.386719 118.945312 178.511719 C 118.964844 178.8125 118.976562 179.148438 118.867188 179.417969 C 118.363281 180.695312 113.585938 183.386719 111.605469 183.34375 C 112.339844 177.878906 115.054688 173.40625 118.257812 168.652344 Z M 118.257812 168.652344 " fill-opacity="1" fill-rule="nonzero"/><path fill="#c6c7c3" d="M 211.535156 183.722656 C 209.480469 182.257812 207.9375 181.257812 206.523438 180.09375 C 206.101562 179.75 205.839844 178.945312 205.863281 178.371094 C 205.988281 175.246094 206.226562 172.125 206.894531 168.699219 C 208.71875 172.457031 210.648438 176.171875 212.277344 180.011719 C 212.628906 180.835938 211.886719 182.132812 211.535156 183.722656 Z M 211.535156 183.722656 " fill-opacity="1" fill-rule="nonzero"/><path fill="#eab63b" d="M 168.339844 137.347656 C 164.320312 137.410156 160.304688 137.472656 156.28125 137.539062 L 156.304688 137.371094 C 156.273438 137.210938 156.183594 137.09375 156.046875 137.019531 C 156.03125 136.691406 156.019531 136.367188 156.007812 136.042969 C 156.011719 134.824219 156.011719 133.609375 156.015625 132.390625 C 156.015625 132.058594 156.019531 131.722656 156.019531 131.390625 C 156.113281 129.570312 156.300781 127.75 156.289062 125.925781 C 156.25 121.265625 156.117188 116.605469 156.023438 111.945312 C 156.160156 111.027344 156.296875 110.109375 156.425781 109.1875 C 156.710938 109.496094 157 109.796875 157.292969 110.101562 C 157.390625 110.714844 157.492188 111.324219 157.589844 111.9375 C 157.589844 112.222656 157.585938 112.515625 157.585938 112.804688 L 157.441406 112.960938 C 157.472656 113.089844 157.539062 113.214844 157.589844 113.335938 C 157.585938 113.628906 157.585938 113.917969 157.582031 114.210938 C 157.46875 114.957031 157.253906 115.699219 157.25 116.449219 C 157.222656 121.945312 157.222656 127.441406 157.25 132.9375 C 157.253906 133.679688 157.472656 134.425781 157.585938 135.167969 C 157.890625 135.425781 158.203125 135.691406 158.507812 135.949219 C 158.691406 135.984375 158.871094 136.023438 159.058594 136.054688 C 160.871094 137.867188 163.105469 136.765625 165.148438 136.875 C 165.949219 136.917969 166.773438 136.527344 167.90625 136.253906 C 167.90625 127.242188 167.90625 118.179688 167.90625 109.121094 C 168.09375 109.527344 168.273438 109.933594 168.460938 110.339844 C 168.417969 119.34375 168.382812 128.347656 168.339844 137.347656 Z M 168.339844 137.347656 " fill-opacity="1" fill-rule="nonzero"/><path fill="#f2f2f2" d="M 148.457031 113.667969 C 148.417969 114.449219 148.378906 115.234375 148.339844 116.015625 L 148.316406 116.039062 C 147.597656 118.808594 146.585938 121.539062 146.242188 124.347656 C 145.886719 127.292969 146.203125 130.320312 146.148438 133.308594 C 146.136719 134.101562 145.851562 134.898438 145.695312 135.691406 C 144.941406 134.433594 143.679688 133.242188 143.511719 131.914062 C 142.652344 125.207031 143.539062 118.863281 148.457031 113.667969 Z M 148.457031 113.667969 " fill-opacity="1" fill-rule="nonzero"/><path fill="#1f1f1f" d="M 173.480469 147.027344 C 165.894531 147.027344 158.308594 147.027344 150.71875 147.027344 C 151.289062 146.785156 151.859375 146.335938 152.433594 146.332031 C 158.875 146.28125 165.320312 146.28125 171.761719 146.332031 C 172.335938 146.335938 172.910156 146.785156 173.480469 147.027344 Z M 173.480469 147.027344 " fill-opacity="1" fill-rule="nonzero"/><path fill="#d8ab4b" d="M 146.007812 142.636719 C 154.355469 142.925781 162.707031 143.25 171.054688 143.472656 C 173.109375 143.527344 175.171875 143.222656 177.238281 143.082031 C 176 143.378906 174.769531 143.925781 173.53125 143.9375 C 166.039062 144.015625 158.542969 144.050781 151.050781 143.90625 C 149.359375 143.871094 147.6875 143.078125 146.007812 142.636719 Z M 146.007812 142.636719 " fill-opacity="1" fill-rule="nonzero"/><path fill="#eab63b" d="M 169.28125 138.707031 C 171.921875 138.597656 174.558594 138.488281 177.199219 138.378906 C 176.484375 138.691406 175.773438 139.277344 175.050781 139.28125 C 166.574219 139.34375 158.09375 139.34375 149.621094 139.285156 C 148.898438 139.28125 148.175781 138.71875 147.449219 138.410156 C 148.382812 138.507812 149.3125 138.601562 150.246094 138.699219 C 150.554688 138.703125 150.871094 138.703125 151.179688 138.707031 C 152.421875 138.707031 153.660156 138.707031 154.898438 138.707031 C 155.359375 138.707031 155.816406 138.707031 156.277344 138.707031 C 158.453125 138.707031 160.621094 138.707031 162.792969 138.707031 C 162.953125 138.707031 163.109375 138.707031 163.265625 138.707031 C 164.347656 138.707031 165.433594 138.707031 166.519531 138.707031 C 166.824219 138.707031 167.128906 138.714844 167.433594 138.714844 C 168.054688 138.71875 168.671875 138.714844 169.28125 138.707031 Z M 169.28125 138.707031 " fill-opacity="1" fill-rule="nonzero"/><path fill="#d8ab4b" d="M 181.828125 134.230469 C 181.976562 132.683594 182.121094 131.144531 182.269531 129.597656 C 184.320312 128.699219 184.789062 130.558594 184.8125 131.582031 C 184.855469 133.417969 184.25 135.273438 183.914062 137.121094 C 184.011719 135.007812 184.105469 132.894531 184.203125 130.777344 C 184.042969 130.777344 183.878906 130.773438 183.71875 130.773438 C 183.085938 131.925781 182.457031 133.078125 181.828125 134.230469 Z M 181.828125 134.230469 " fill-opacity="1" fill-rule="nonzero"/><path fill="#eab63b" d="M 167.8125 108.257812 C 167.847656 108.546875 167.875 108.835938 167.910156 109.121094 C 164.953125 106.582031 161.574219 106.972656 158.140625 107.722656 C 158.132812 107.546875 158.125 107.371094 158.121094 107.195312 C 160.859375 105.675781 163.683594 106.4375 166.492188 106.886719 C 166.636719 107.035156 166.78125 107.183594 166.921875 107.335938 C 167.214844 107.644531 167.511719 107.953125 167.8125 108.257812 Z M 167.8125 108.257812 " fill-opacity="1" fill-rule="nonzero"/><path fill="#cfa13a" d="M 156.023438 111.945312 C 156.117188 116.605469 156.25 121.265625 156.289062 125.925781 C 156.304688 127.75 156.117188 129.570312 156.019531 131.390625 C 156.019531 124.902344 156.023438 118.425781 156.023438 111.945312 Z M 156.023438 111.945312 " fill-opacity="1" fill-rule="nonzero"/><path fill="#4d2708" d="M 181.378906 125.375 C 180.757812 123.0625 180.140625 120.75 179.519531 118.433594 C 181.359375 119.746094 182.234375 122.996094 181.378906 125.375 Z M 181.378906 125.375 " fill-opacity="1" fill-rule="nonzero"/><path fill="#1f1f1f" d="M 186.058594 139.792969 C 185.875 140.242188 185.691406 140.6875 185.511719 141.136719 C 184.453125 142.085938 183.390625 143.035156 182.335938 143.984375 C 183.578125 142.589844 184.816406 141.191406 186.058594 139.792969 Z M 186.058594 139.792969 " fill-opacity="1" fill-rule="nonzero"/><path fill="#1f1f1f" d="M 178.632812 145.886719 C 177.230469 146.253906 175.828125 146.613281 174.425781 146.976562 C 175.828125 146.613281 177.226562 146.253906 178.632812 145.886719 Z M 178.632812 145.886719 " fill-opacity="1" fill-rule="nonzero"/><path fill="#4d2708" d="M 179.425781 118.113281 C 178.828125 117.136719 178.234375 116.160156 177.636719 115.183594 C 179.320312 115.496094 179.492188 116.734375 179.425781 118.113281 Z M 179.425781 118.113281 " fill-opacity="1" fill-rule="nonzero"/><path fill="#4d2708" d="M 173.917969 111.488281 C 173.28125 111.050781 172.640625 110.609375 172.003906 110.175781 C 172.640625 110.609375 173.28125 111.046875 173.917969 111.488281 Z M 173.917969 111.488281 " fill-opacity="1" fill-rule="nonzero"/><path fill="#cfa13a" d="M 156.015625 132.390625 C 156.011719 133.609375 156.011719 134.824219 156.007812 136.042969 C 156.011719 134.824219 156.015625 133.605469 156.015625 132.390625 Z M 156.015625 132.390625 " fill-opacity="1" fill-rule="nonzero"/><path fill="#d8ab4b" d="M 181.867188 140.292969 C 182.335938 139.667969 182.804688 139.042969 183.273438 138.421875 C 182.804688 139.042969 182.335938 139.667969 181.867188 140.292969 Z M 181.867188 140.292969 " fill-opacity="1" fill-rule="nonzero"/><path fill="#1f1f1f" d="M 180.949219 144.9375 C 180.179688 145.253906 179.40625 145.574219 178.632812 145.890625 C 179.40625 145.574219 180.179688 145.253906 180.949219 144.9375 Z M 180.949219 144.9375 " fill-opacity="1" fill-rule="nonzero"/><path fill="#d8ab4b" d="M 177.226562 143.085938 C 177.890625 142.839844 178.546875 142.597656 179.210938 142.355469 C 178.550781 142.597656 177.890625 142.839844 177.226562 143.085938 Z M 177.226562 143.085938 " fill-opacity="1" fill-rule="nonzero"/><path fill="#4d2708" d="M 172 110.175781 C 171.433594 109.914062 170.875 109.660156 170.3125 109.402344 C 170.875 109.660156 171.4375 109.917969 172 110.175781 Z M 172 110.175781 " fill-opacity="1" fill-rule="nonzero"/><path fill="#d8ab4b" d="M 143.785156 141.210938 C 144.230469 141.523438 144.671875 141.835938 145.117188 142.152344 C 144.671875 141.835938 144.226562 141.523438 143.785156 141.210938 Z M 143.785156 141.210938 " fill-opacity="1" fill-rule="nonzero"/><path fill="#1f1f1f" d="M 182.320312 144 C 181.863281 144.3125 181.410156 144.625 180.949219 144.945312 C 181.410156 144.625 181.863281 144.3125 182.320312 144 Z M 182.320312 144 " fill-opacity="1" fill-rule="nonzero"/><path fill="#eab63b" d="M 145.621094 137.460938 C 145.199219 137.089844 144.777344 136.722656 144.363281 136.351562 C 144.785156 136.722656 145.203125 137.089844 145.621094 137.460938 Z M 145.621094 137.460938 " fill-opacity="1" fill-rule="nonzero"/><path fill="#cfa13a" d="M 157.21875 107.71875 C 156.9375 108.132812 156.65625 108.542969 156.371094 108.957031 C 156.652344 108.542969 156.9375 108.132812 157.21875 107.71875 Z M 157.21875 107.71875 " fill-opacity="1" fill-rule="nonzero"/><path fill="#1f1f1f" d="M 149.78125 146.957031 C 149.433594 146.976562 149.078125 147 148.730469 147.015625 L 148.710938 146.917969 C 149.066406 146.929688 149.421875 146.945312 149.78125 146.957031 Z M 149.78125 146.957031 " fill-opacity="1" fill-rule="nonzero"/><path fill="#eab63b" d="M 147.445312 138.410156 C 147.015625 138.195312 146.585938 137.984375 146.160156 137.765625 C 146.589844 137.980469 147.015625 138.195312 147.445312 138.410156 Z M 147.445312 138.410156 " fill-opacity="1" fill-rule="nonzero"/><path fill="#4d2708" d="M 176.570312 113.921875 C 176.273438 113.601562 175.976562 113.28125 175.679688 112.960938 C 175.972656 113.285156 176.269531 113.605469 176.570312 113.921875 Z M 176.570312 113.921875 " fill-opacity="1" fill-rule="nonzero"/><path fill="#d8ab4b" d="M 183.269531 138.425781 C 183.484375 138.003906 183.707031 137.578125 183.921875 137.160156 C 183.707031 137.582031 183.488281 138.003906 183.269531 138.425781 Z M 183.269531 138.425781 " fill-opacity="1" fill-rule="nonzero"/><path fill="#cfa13a" d="M 158.117188 107.199219 C 158.125 107.375 158.132812 107.550781 158.136719 107.730469 C 157.828125 107.730469 157.523438 107.722656 157.210938 107.722656 C 157.515625 107.546875 157.816406 107.371094 158.117188 107.199219 Z M 158.117188 107.199219 " fill-opacity="1" fill-rule="nonzero"/><path fill="#d8ab4b" d="M 180.011719 141.699219 C 180.316406 141.527344 180.628906 141.359375 180.933594 141.1875 C 180.628906 141.359375 180.316406 141.527344 180.011719 141.699219 Z M 180.011719 141.699219 " fill-opacity="1" fill-rule="nonzero"/><path fill="#4d2708" d="M 166.917969 107.339844 C 166.773438 107.191406 166.628906 107.042969 166.488281 106.890625 C 166.601562 106.828125 166.71875 106.769531 166.832031 106.707031 C 166.855469 106.917969 166.886719 107.125 166.917969 107.339844 Z M 166.917969 107.339844 " fill-opacity="1" fill-rule="nonzero"/><path fill="#4d2708" d="M 177.199219 114.695312 C 176.988281 114.441406 176.78125 114.183594 176.570312 113.929688 C 176.78125 114.183594 176.988281 114.441406 177.199219 114.695312 Z M 177.199219 114.695312 " fill-opacity="1" fill-rule="nonzero"/><path fill="#4d2708" d="M 175.199219 112.535156 C 174.941406 112.324219 174.679688 112.113281 174.425781 111.90625 C 174.679688 112.113281 174.941406 112.324219 175.199219 112.535156 Z M 175.199219 112.535156 " fill-opacity="1" fill-rule="nonzero"/><path fill="#4d2708" d="M 151.183594 138.714844 C 150.875 138.707031 150.5625 138.707031 150.25 138.703125 C 150.5625 138.707031 150.871094 138.707031 151.183594 138.714844 Z M 151.183594 138.714844 " fill-opacity="1" fill-rule="nonzero"/><path fill="#d8ab4b" d="M 145.105469 142.144531 C 145.414062 142.3125 145.730469 142.488281 146.039062 142.65625 C 145.730469 142.488281 145.421875 142.3125 145.105469 142.144531 Z M 145.105469 142.144531 " fill-opacity="1" fill-rule="nonzero"/><path fill="#eab63b" d="M 144.402344 136.386719 C 144.175781 136.136719 143.953125 135.886719 143.730469 135.632812 C 143.953125 135.886719 144.175781 136.136719 144.402344 136.386719 Z M 144.402344 136.386719 " fill-opacity="1" fill-rule="nonzero"/><path fill="#4d2708" d="M 167.4375 138.71875 C 167.132812 138.71875 166.828125 138.714844 166.523438 138.714844 C 166.828125 138.71875 167.132812 138.71875 167.4375 138.71875 Z M 167.4375 138.71875 " fill-opacity="1" fill-rule="nonzero"/><path fill="#d8ab4b" d="M 179.253906 142.328125 C 179.511719 142.113281 179.773438 141.898438 180.035156 141.679688 C 179.769531 141.898438 179.511719 142.113281 179.253906 142.328125 Z M 179.253906 142.328125 " fill-opacity="1" fill-rule="nonzero"/><path fill="#4d2708" d="M 175.683594 112.960938 C 175.527344 112.820312 175.363281 112.675781 175.207031 112.535156 C 175.363281 112.679688 175.519531 112.824219 175.683594 112.960938 Z M 175.683594 112.960938 " fill-opacity="1" fill-rule="nonzero"/><path fill="#eab63b" d="M 143.722656 135.621094 C 143.578125 135.453125 143.433594 135.277344 143.289062 135.109375 C 143.429688 135.277344 143.578125 135.449219 143.722656 135.621094 Z M 143.722656 135.621094 " fill-opacity="1" fill-rule="nonzero"/><path fill="#cfa13a" d="M 156.046875 137.019531 C 156.191406 137.09375 156.273438 137.210938 156.304688 137.371094 C 156.21875 137.253906 156.128906 137.136719 156.046875 137.019531 Z M 156.046875 137.019531 " fill-opacity="1" fill-rule="nonzero"/><path fill="#4d2708" d="M 174.417969 111.902344 C 174.246094 111.761719 174.078125 111.617188 173.910156 111.476562 C 174.078125 111.617188 174.246094 111.757812 174.417969 111.902344 Z M 174.417969 111.902344 " fill-opacity="1" fill-rule="nonzero"/><path fill="#d8ab4b" d="M 180.917969 141.195312 C 181.085938 141.039062 181.253906 140.886719 181.421875 140.730469 C 181.257812 140.886719 181.085938 141.042969 180.917969 141.195312 Z M 180.917969 141.195312 " fill-opacity="1" fill-rule="nonzero"/><path fill="#4d2708" d="M 177.648438 115.195312 C 177.5 115.03125 177.355469 114.863281 177.207031 114.703125 C 177.355469 114.867188 177.5 115.03125 177.648438 115.195312 Z M 177.648438 115.195312 " fill-opacity="1" fill-rule="nonzero"/><path fill="#eab63b" d="M 146.207031 137.800781 C 146.007812 137.679688 145.804688 137.566406 145.605469 137.449219 C 145.804688 137.566406 146.007812 137.6875 146.207031 137.800781 Z M 146.207031 137.800781 " fill-opacity="1" fill-rule="nonzero"/><path fill="#d8ab4b" d="M 181.398438 140.757812 C 181.558594 140.59375 181.722656 140.433594 181.882812 140.265625 C 181.722656 140.433594 181.5625 140.59375 181.398438 140.757812 Z M 181.398438 140.757812 " fill-opacity="1" fill-rule="nonzero"/><path fill="#1fa2ff" d="M 181.816406 158.898438 C 182.839844 158.726562 183.863281 158.433594 184.890625 158.414062 C 188.132812 158.351562 191.386719 158.515625 194.621094 158.347656 C 196.527344 158.246094 197.234375 159.105469 197.574219 160.742188 C 199.257812 168.867188 198.882812 176.804688 195.535156 184.496094 C 195.386719 184.839844 195.359375 185.238281 195.273438 185.613281 C 195.132812 185.667969 194.996094 185.726562 194.867188 185.792969 C 190.070312 185.785156 185.273438 185.78125 180.472656 185.773438 C 180.363281 185.570312 180.199219 185.375 180.15625 185.15625 C 177.445312 171.015625 159.539062 165.070312 148.757812 176.542969 C 148.644531 174.695312 148.53125 172.847656 148.421875 170.996094 C 153.832031 170.128906 155.496094 168.222656 155.429688 162.734375 C 155.410156 161.152344 155.085938 159.574219 154.902344 157.988281 C 159.855469 157.992188 164.8125 158 169.765625 158 C 169.523438 160.773438 169.277344 163.554688 169.035156 166.324219 C 173.667969 166.324219 177.796875 166.324219 182.242188 166.324219 C 182.09375 163.765625 181.957031 161.332031 181.816406 158.898438 Z M 181.816406 158.898438 " fill-opacity="1" fill-rule="nonzero"/><path fill="#1fa2ff" d="M 180.472656 185.78125 C 185.269531 185.789062 190.066406 185.792969 194.867188 185.804688 C 192.894531 191.066406 189.433594 195.300781 185.207031 198.816406 C 180.390625 202.832031 174.925781 205.777344 168.703125 207.140625 C 162.671875 208.46875 156.671875 208.421875 150.679688 206.9375 C 150.085938 206.789062 149.46875 206.742188 148.863281 206.648438 C 148.785156 206.503906 148.710938 206.363281 148.632812 206.21875 C 148.667969 202.816406 148.703125 199.417969 148.738281 196.011719 C 149.277344 195.992188 149.816406 195.949219 150.355469 195.949219 C 158.839844 195.941406 167.324219 195.953125 175.804688 195.929688 C 179.164062 195.921875 180.445312 194.628906 180.472656 191.335938 C 180.484375 189.480469 180.472656 187.632812 180.472656 185.78125 Z M 180.472656 185.78125 " fill-opacity="1" fill-rule="nonzero"/><path fill="#201d1c" d="M 180.472656 185.78125 C 180.472656 187.632812 180.484375 189.484375 180.472656 191.335938 C 180.445312 194.628906 179.164062 195.921875 175.804688 195.929688 C 167.324219 195.957031 158.839844 195.945312 150.355469 195.949219 C 149.816406 195.949219 149.277344 195.992188 148.738281 196.011719 C 144.46875 194.855469 144.273438 194.441406 144.15625 189.945312 C 144.023438 184.867188 145.480469 180.414062 148.757812 176.554688 C 159.539062 165.078125 177.441406 171.027344 180.15625 185.167969 C 180.195312 185.382812 180.359375 185.574219 180.472656 185.78125 Z M 170.242188 194.609375 C 170.855469 194.578125 171.472656 194.511719 172.085938 194.507812 C 175.160156 194.488281 176.136719 193.441406 175.804688 190.351562 C 175.726562 189.605469 175.28125 188.90625 175.167969 188.160156 C 175.066406 187.449219 174.945312 186.589844 175.246094 186.007812 C 177.011719 182.609375 176.441406 178.246094 173.375 175.988281 C 171.320312 174.472656 168.8125 173.566406 166.511719 172.382812 C 161.402344 170.972656 156.710938 172 152.445312 174.992188 C 148.019531 178.09375 147.234375 182.464844 150.1875 187.082031 C 148.714844 189.351562 148.144531 191.699219 149.851562 194.148438 C 150.140625 194.242188 150.429688 194.335938 150.71875 194.429688 C 155.964844 194.390625 161.210938 194.347656 166.453125 194.308594 C 166.785156 194.40625 167.113281 194.5 167.441406 194.597656 C 168.371094 194.609375 169.308594 194.609375 170.242188 194.609375 Z M 170.242188 194.609375 " fill-opacity="1" fill-rule="nonzero"/><path fill="#201d1c" d="M 154.898438 157.992188 C 155.082031 159.578125 155.40625 161.15625 155.425781 162.738281 C 155.492188 168.234375 153.832031 170.140625 148.417969 171 C 141.789062 169.484375 141.707031 163.308594 143.035156 158.820312 C 143.792969 156.253906 145.972656 154.972656 148.613281 154.585938 C 151.308594 154.617188 153.328125 155.898438 154.898438 157.992188 Z M 150.644531 156.328125 C 149.699219 157.757812 148.6875 158.609375 148.78125 159.324219 C 148.878906 160.070312 150.035156 160.679688 150.730469 161.351562 C 151.394531 160.660156 152.507812 160.007812 152.582031 159.257812 C 152.644531 158.539062 151.621094 157.71875 150.644531 156.328125 Z M 150.644531 156.328125 " fill-opacity="1" fill-rule="nonzero"/><path fill="#1fa2ff" d="M 126.15625 159.796875 C 124.519531 165.894531 123.984375 172.074219 124.75 178.351562 C 124.421875 175.445312 123.769531 172.523438 123.851562 169.625 C 123.933594 166.765625 124.726562 163.914062 125.28125 161.074219 C 125.371094 160.613281 125.855469 160.222656 126.15625 159.796875 Z M 126.15625 159.796875 " fill-opacity="1" fill-rule="nonzero"/><path fill="#1fa2ff" d="M 125.664062 182 C 125.796875 181.0625 125.992188 180.121094 126.050781 179.175781 C 126.273438 175.660156 126.453125 172.140625 126.648438 168.628906 C 126.617188 169.957031 126.515625 171.289062 126.566406 172.617188 C 126.679688 175.679688 126.882812 178.734375 126.996094 181.792969 C 127.023438 182.480469 126.847656 183.175781 126.769531 183.867188 C 126.511719 183.878906 126.257812 183.890625 126.003906 183.902344 C 125.890625 183.269531 125.773438 182.632812 125.664062 182 Z M 125.664062 182 " fill-opacity="1" fill-rule="nonzero"/><path fill="#e14545" d="M 126.824219 167.675781 C 127.15625 166.566406 127.496094 165.457031 127.832031 164.34375 C 127.492188 165.457031 127.15625 166.566406 126.824219 167.675781 Z M 126.824219 167.675781 " fill-opacity="1" fill-rule="nonzero"/><path fill="#e14545" d="M 124.726562 178.328125 C 125.046875 179.570312 125.375 180.820312 125.699219 182.0625 C 125.375 180.820312 125.046875 179.570312 124.726562 178.328125 Z M 124.726562 178.328125 " fill-opacity="1" fill-rule="nonzero"/><path fill="#ffffff" d="M 127.769531 164.339844 C 127.988281 163.59375 128.207031 162.847656 128.425781 162.09375 C 128.207031 162.847656 127.988281 163.59375 127.769531 164.339844 Z M 127.769531 164.339844 " fill-opacity="1" fill-rule="nonzero"/><path fill="#ffffff" d="M 127.605469 156.113281 C 127.417969 156.570312 127.230469 157.03125 127.042969 157.488281 C 127.230469 157.03125 127.417969 156.570312 127.605469 156.113281 Z M 127.605469 156.113281 " fill-opacity="1" fill-rule="nonzero"/><path fill="#ffffff" d="M 130.855469 150.515625 C 130.6875 150.691406 130.515625 150.875 130.34375 151.054688 C 130.511719 150.875 130.6875 150.695312 130.855469 150.515625 Z M 130.855469 150.515625 " fill-opacity="1" fill-rule="nonzero"/><path fill="#1d1d1d" d="M 181.816406 158.898438 C 181.957031 161.332031 182.09375 163.765625 182.238281 166.328125 C 177.792969 166.328125 173.664062 166.328125 169.03125 166.328125 C 169.273438 163.558594 169.519531 160.78125 169.761719 158.003906 C 173.65625 153.460938 177.910156 153.464844 181.417969 158.019531 C 181.550781 158.316406 181.683594 158.605469 181.816406 158.898438 Z M 180.292969 159.285156 C 178.902344 158.332031 178.050781 157.300781 177.324219 157.382812 C 176.582031 157.464844 175.4375 158.636719 175.4375 159.328125 C 175.4375 160 176.621094 161.152344 177.363281 161.21875 C 178.09375 161.285156 178.921875 160.246094 180.292969 159.285156 Z M 180.292969 159.285156 " fill-opacity="1" fill-rule="nonzero"/><path fill="#1f1f1f" d="M 218.539062 199.59375 C 217.175781 200.566406 216.402344 201.546875 215.640625 201.535156 C 214.96875 201.527344 214.316406 200.40625 213.652344 199.777344 C 214.328125 199.078125 214.914062 198 215.714844 197.808594 C 216.304688 197.671875 217.171875 198.683594 218.539062 199.59375 Z M 218.539062 199.59375 " fill-opacity="1" fill-rule="nonzero"/><path fill="#fceae9" d="M 157.585938 112.804688 C 157.585938 112.515625 157.589844 112.222656 157.589844 111.9375 C 157.664062 111.371094 157.734375 110.800781 157.804688 110.238281 C 158.175781 110.769531 158.550781 111.304688 158.925781 111.832031 C 158.9375 112.042969 158.945312 112.246094 158.949219 112.453125 C 158.945312 112.710938 158.941406 112.96875 158.9375 113.226562 C 158.898438 113.433594 158.855469 113.644531 158.8125 113.855469 C 158.851562 119.539062 158.890625 125.21875 158.933594 130.902344 C 158.894531 131.875 158.851562 132.847656 158.8125 133.824219 C 158.804688 134.246094 158.796875 134.667969 158.789062 135.09375 C 158.695312 135.378906 158.601562 135.667969 158.507812 135.953125 C 158.203125 135.695312 157.890625 135.433594 157.585938 135.171875 C 157.585938 128.183594 157.582031 121.203125 157.578125 114.214844 C 157.582031 113.921875 157.582031 113.632812 157.585938 113.339844 C 157.589844 113.15625 157.589844 112.984375 157.585938 112.804688 Z M 157.585938 112.804688 " fill-opacity="1" fill-rule="nonzero"/><path fill="#efcc83" d="M 158.8125 133.820312 C 158.855469 132.847656 158.894531 131.875 158.933594 130.898438 C 158.894531 131.871094 158.855469 132.84375 158.8125 133.820312 Z M 158.8125 133.820312 " fill-opacity="1" fill-rule="nonzero"/><path fill="#efcc83" d="M 157.804688 110.234375 C 157.730469 110.796875 157.660156 111.367188 157.589844 111.929688 C 157.488281 111.320312 157.390625 110.707031 157.292969 110.097656 C 157.464844 110.148438 157.632812 110.191406 157.804688 110.234375 Z M 157.804688 110.234375 " fill-opacity="1" fill-rule="nonzero"/><path fill="#efcc83" d="M 158.511719 135.949219 C 158.605469 135.660156 158.699219 135.371094 158.792969 135.085938 C 158.882812 135.410156 158.972656 135.734375 159.0625 136.058594 C 158.875 136.023438 158.695312 135.984375 158.511719 135.949219 Z M 158.511719 135.949219 " fill-opacity="1" fill-rule="nonzero"/><path fill="#efcc83" d="M 158.949219 112.449219 C 158.941406 112.242188 158.9375 112.039062 158.925781 111.828125 C 158.9375 112.039062 158.945312 112.246094 158.949219 112.449219 Z M 158.949219 112.449219 " fill-opacity="1" fill-rule="nonzero"/><path fill="#efcc83" d="M 158.816406 113.851562 C 158.859375 113.640625 158.898438 113.429688 158.941406 113.222656 C 158.898438 113.433594 158.855469 113.640625 158.816406 113.851562 Z M 158.816406 113.851562 " fill-opacity="1" fill-rule="nonzero"/><path fill="#eab63b" d="M 178.148438 137.945312 C 178.449219 137.777344 178.75 137.609375 179.054688 137.445312 C 178.75 137.609375 178.449219 137.773438 178.148438 137.945312 Z M 178.148438 137.945312 " fill-opacity="1" fill-rule="nonzero"/><path fill="#eab63b" d="M 179.039062 137.453125 C 179.328125 137.257812 179.613281 137.0625 179.898438 136.863281 C 179.609375 137.058594 179.324219 137.253906 179.039062 137.453125 Z M 179.039062 137.453125 " fill-opacity="1" fill-rule="nonzero"/><path fill="#eab63b" d="M 180.332031 136.457031 C 180.535156 136.1875 180.734375 135.914062 180.9375 135.644531 C 180.734375 135.917969 180.535156 136.191406 180.332031 136.457031 Z M 180.332031 136.457031 " fill-opacity="1" fill-rule="nonzero"/><path fill="#eab63b" d="M 177.183594 138.390625 C 177.503906 138.246094 177.816406 138.097656 178.136719 137.953125 C 177.816406 138.097656 177.503906 138.242188 177.183594 138.390625 Z M 177.183594 138.390625 " fill-opacity="1" fill-rule="nonzero"/><path fill="#eab63b" d="M 181.351562 135.140625 C 181.503906 134.902344 181.652344 134.660156 181.804688 134.421875 C 181.65625 134.660156 181.503906 134.898438 181.351562 135.140625 Z M 181.351562 135.140625 " fill-opacity="1" fill-rule="nonzero"/><path fill="#eab63b" d="M 179.871094 136.90625 C 180.039062 136.742188 180.203125 136.582031 180.371094 136.421875 C 180.203125 136.582031 180.039062 136.742188 179.871094 136.90625 Z M 179.871094 136.90625 " fill-opacity="1" fill-rule="nonzero"/><path fill="#eab63b" d="M 180.960938 135.613281 C 181.09375 135.445312 181.234375 135.277344 181.371094 135.109375 C 181.234375 135.277344 181.09375 135.449219 180.960938 135.613281 Z M 180.960938 135.613281 " fill-opacity="1" fill-rule="nonzero"/><path fill="#cfa13a" d="M 168.339844 137.347656 C 168.378906 128.34375 168.417969 119.34375 168.457031 110.339844 C 168.554688 110.933594 168.738281 111.527344 168.742188 112.121094 C 168.757812 119.972656 168.757812 127.820312 168.734375 135.667969 C 168.730469 136.230469 168.480469 136.789062 168.339844 137.347656 Z M 168.339844 137.347656 " fill-opacity="1" fill-rule="nonzero"/><path fill="#fcb31e" d="M 148.339844 116.015625 C 149.523438 114.625 150.683594 113.210938 151.914062 111.863281 C 152.351562 111.382812 152.984375 111.082031 153.855469 110.472656 C 153.914062 111.667969 153.988281 112.476562 153.988281 113.285156 C 153.996094 120.25 153.992188 127.214844 153.992188 134.179688 C 153.992188 137.035156 153.90625 137.105469 151.152344 136.636719 C 146.972656 135.929688 147.050781 135.929688 146.960938 131.636719 C 146.855469 126.386719 146.9375 121.164062 148.316406 116.050781 Z M 148.339844 116.015625 " fill-opacity="1" fill-rule="nonzero"/><path fill="#efcc83" d="M 157.585938 114.210938 C 157.589844 121.199219 157.589844 128.179688 157.59375 135.167969 C 157.476562 134.425781 157.265625 133.683594 157.257812 132.9375 C 157.230469 127.4375 157.230469 121.941406 157.257812 116.449219 C 157.253906 115.699219 157.46875 114.953125 157.585938 114.210938 Z M 157.585938 114.210938 " fill-opacity="1" fill-rule="nonzero"/><path fill="#efcc83" d="M 157.585938 112.804688 C 157.589844 112.984375 157.589844 113.15625 157.59375 113.335938 C 157.539062 113.214844 157.472656 113.09375 157.441406 112.960938 Z M 157.585938 112.804688 " fill-opacity="1" fill-rule="nonzero"/><path fill="#fbfcfc" d="M 166.449219 194.316406 C 161.203125 194.355469 155.957031 194.398438 150.714844 194.4375 C 150.425781 194.34375 150.136719 194.25 149.847656 194.15625 C 148.144531 191.707031 148.714844 189.359375 150.183594 187.089844 C 147.226562 182.46875 148.015625 178.101562 152.441406 175 C 156.710938 172.007812 161.398438 170.980469 166.507812 172.394531 C 167.734375 176.019531 167.929688 179.621094 166.390625 183.226562 C 166.1875 183.699219 165.960938 184.371094 166.144531 184.765625 C 167.613281 187.921875 166.804688 191.121094 166.449219 194.316406 Z M 166.449219 194.316406 " fill-opacity="1" fill-rule="nonzero"/><path fill="#b7d4e2" d="M 166.449219 194.316406 C 166.804688 191.121094 167.613281 187.921875 166.144531 184.761719 C 165.960938 184.367188 166.191406 183.699219 166.390625 183.222656 C 167.929688 179.621094 167.734375 176.015625 166.507812 172.386719 C 168.808594 173.570312 171.316406 174.476562 173.371094 175.992188 C 176.4375 178.25 177.007812 182.617188 175.242188 186.011719 C 174.941406 186.589844 175.058594 187.453125 175.164062 188.164062 C 175.273438 188.910156 175.722656 189.609375 175.800781 190.359375 C 176.132812 193.445312 175.15625 194.492188 172.082031 194.511719 C 171.46875 194.519531 170.851562 194.578125 170.238281 194.617188 C 169.300781 194.617188 168.367188 194.609375 167.433594 194.609375 C 167.109375 194.511719 166.78125 194.414062 166.449219 194.316406 Z M 166.449219 194.316406 " fill-opacity="1" fill-rule="nonzero"/><path fill="#1d1d1d" d="M 167.4375 194.605469 C 168.371094 194.605469 169.308594 194.609375 170.242188 194.609375 C 169.308594 194.609375 168.371094 194.609375 167.4375 194.605469 Z M 167.4375 194.605469 " fill-opacity="1" fill-rule="nonzero"/><path fill="#b7d4e2" d="M 149.847656 194.160156 C 150.136719 194.253906 150.425781 194.347656 150.714844 194.441406 C 150.425781 194.34375 150.136719 194.25 149.847656 194.160156 Z M 149.847656 194.160156 " fill-opacity="1" fill-rule="nonzero"/><path fill="#f2f2f2" d="M 150.644531 156.328125 C 151.621094 157.71875 152.644531 158.539062 152.578125 159.253906 C 152.507812 160 151.386719 160.65625 150.726562 161.347656 C 150.035156 160.675781 148.875 160.070312 148.777344 159.316406 C 148.6875 158.609375 149.699219 157.75 150.644531 156.328125 Z M 150.644531 156.328125 " fill-opacity="1" fill-rule="nonzero"/><path fill="#f2f2f2" d="M 180.292969 159.285156 C 178.921875 160.246094 178.09375 161.285156 177.363281 161.214844 C 176.621094 161.148438 175.4375 159.996094 175.4375 159.324219 C 175.4375 158.625 176.582031 157.457031 177.324219 157.378906 C 178.050781 157.300781 178.902344 158.328125 180.292969 159.285156 Z M 180.292969 159.285156 " fill-opacity="1" fill-rule="nonzero"/><path fill="#909090" d="M 232.878906 164.671875 C 232.554688 165.75 232.425781 166.355469 232.195312 166.917969 C 229.101562 174.414062 226.019531 181.917969 222.847656 189.386719 C 222.457031 190.308594 221.6875 191.425781 220.847656 191.691406 C 220.027344 191.949219 218.496094 191.535156 218.007812 190.875 C 217.460938 190.132812 217.351562 188.636719 217.707031 187.730469 C 220.015625 181.832031 222.507812 176.003906 224.9375 170.160156 C 225.800781 168.09375 226.460938 165.902344 227.613281 164.007812 C 228.097656 163.214844 229.65625 162.613281 230.636719 162.722656 C 231.488281 162.808594 232.203125 164.039062 232.878906 164.671875 Z M 232.878906 164.671875 " fill-opacity="1" fill-rule="nonzero"/></svg>